<?xml version="1.0" encoding="utf-8"?>
<!-- Generator: Adobe Illustrator 26.2.0, SVG Export Plug-In . SVG Version: 6.00 Build 0)  -->
<svg version="1.1" id="Layer_1" xmlns="http://www.w3.org/2000/svg" xmlns:xlink="http://www.w3.org/1999/xlink" x="0px" y="0px"
	 viewBox="0 0 1000 361.5" style="enable-background:new 0 0 1000 361.5;" xml:space="preserve">
<style type="text/css">
	.st0{fill:#005EA0;}
	.st1{fill:#52C62A;}
	.st2{fill:#71777B;}
	.st3{fill:#72777B;}
	.st4{fill:#FFFFFF;}
	.st5{fill:#71777A;}
	.st6{fill:none;}
</style>
<g>
	<g>
		<g>
			<path class="st0" d="M570.1,175.6h-11.2c-1.3-16.9-8.8-32.5-21.2-44.1c-12.5-11.6-28.7-18-45.8-18c-5.3,0-10.6,0.6-15.7,1.8
				c-0.6-3.9-2.1-7.4-4.4-10.4c6.5-1.7,13.2-2.6,20-2.6c19.9,0,38.9,7.5,53.4,21c14.5,13.5,23.3,31.7,24.8,51.4L570.1,175.6z"/>
		</g>
		<g>
			<path class="st0" d="M440.9,136.9c-9.4,10.8-15,24.3-16.1,38.7h-11.1v-0.8c1.3-17.4,8.3-33.7,19.9-46.5
				C435.3,131.7,437.8,134.7,440.9,136.9z"/>
		</g>
		<g>
			<g>
				<polygon class="st0" points="424.8,175.6 424.8,175.6 424.5,175.6 				"/>
			</g>
		</g>
		<g>
			<g>
				<path class="st1" d="M424.8,185.9h-0.3"/>
			</g>
		</g>
		<g>
			<path class="st2" d="M156.2,259.2c-43.2,0-78.4-35.2-78.4-78.4s35.2-78.4,78.4-78.4c24.9,0,47.8,11.5,62.8,31.4l-8.9,6.7
				c-12.8-17.1-32.5-27-53.8-27c-37.1,0-67.2,30.2-67.2,67.2s30.2,67.2,67.2,67.2c35.2,0,64.2-27.2,67-61.7h-41.8v-11.2h53.2v5.6
				C234.6,224,199.4,259.2,156.2,259.2z"/>
		</g>
		<g>
			<path class="st2" d="M401.1,180.8c0-43.3-35.2-78.4-78.4-78.4s-78.4,35.2-78.4,78.4c0,43.2,35.2,78.4,78.4,78.4
				c24.9,0,47.8-11.5,62.8-31.4l-8.9-6.7c-12.9,17.1-32.5,26.9-53.9,26.9c-35.2,0-64.2-27.2-67-61.7h145.4V180.8z M255.7,175.2
				c2.9-34.5,31.8-61.7,67-61.7s64.2,27.2,67,61.7H255.7z"/>
		</g>
		<g>
			<path class="st0" d="M469.7,118.6c0,8.7-7.1,15.8-15.8,15.8c-3.1,0-5.9-0.9-8.4-2.4c-3.2-2-5.7-5.2-6.8-8.9
				c-0.4-1.4-0.6-2.9-0.6-4.5c0-8.7,7.1-15.8,15.8-15.8c4.2,0,8.1,1.7,10.9,4.4c2.7,2.6,4.5,6.2,4.9,10.1
				C469.7,117.7,469.7,118.1,469.7,118.6z"/>
		</g>
		<g>
			<path class="st1" d="M424.5,185.9h-0.3l-10.5,0"/>
		</g>
		<g>
			<path class="st2" d="M699.5,259.2c-43.2,0-78.4-35.2-78.4-78.4s35.2-78.4,78.4-78.4c24.9,0,47.8,11.5,62.8,31.4l-8.9,6.7
				c-12.8-17.1-32.5-27-53.8-27c-37.1,0-67.2,30.2-67.2,67.2s30.2,67.2,67.2,67.2c21.4,0,41-9.8,53.8-27l8.9,6.7
				C747.3,247.7,724.4,259.2,699.5,259.2z"/>
		</g>
		<g>
			<path class="st2" d="M854.9,102.3c-40.3,0-67.3,31.5-67.3,78.4v78.4h11.2v-53h112.3v53h11.2v-78.4
				C922.2,133.8,895.2,102.3,854.9,102.3z M798.7,195v-14.2c0-49.6,30.2-67.3,56.2-67.3c25.9,0,56.2,17.6,56.2,67.3V195H798.7z"/>
		</g>
		<g>
			<circle class="st3" cx="595.7" cy="250.9" r="8"/>
		</g>
		<g>
			<polygon class="st4" points="424.8,175.6 424.8,175.6 424.5,175.6 			"/>
		</g>
	</g>
	<g>
		<path class="st1" d="M499.8,258.8c10.9-1,21.5-4.4,31-9.8c14.1-8,25.2-20.1,32.2-34.7c3.9-8.3,6.4-17.3,7.2-26.6l0.1-1.7l0,0l0,0
			c0,0,0,0,0,0l-11.1,0v0l0,0.1l0,0.5l0,0.2c-0.7,7.9-2.8,15.6-6.2,22.7c0,0,0,0.1-0.1,0.1c-5.9,12.3-15.6,22.8-27.4,29.5
			c0,0-0.1,0.1-0.1,0.1c-4.6,2.6-9.4,4.6-14.4,6.1c0,0-0.5,0.1-1,0.2c-0.7,0.1-1.4,0.2-2.1,0.4c-21.7,3.1-33.6-8.3-42.2-20
			c-7.6-10.4-17.8-39.9-40.7-40h-0.7l-10.5,0c0,0,0,0.2,0,0.8c1.5,19.7,10.3,37.9,24.8,51.4c14.6,13.5,33.5,21,53.5,21h0.2
			c0.8,0,1.7,0,2.5,0C496.1,259.1,499.8,258.8,499.8,258.8z"/>
		<path class="st5" d="M424.8,185.9h-0.6l-10.5,0"/>
	</g>
	<path class="st6" d="M570.2,185.9c0,0,0,0,0,1"/>
</g>
</svg>
